<svg id="visual" viewBox="0 0 900 600" width="900" height="600" xmlns="http://www.w3.org/2000/svg" xmlns:xlink="http://www.w3.org/1999/xlink" version="1.1"><rect width="900" height="600" fill="#000000"></rect><g><g transform="translate(846 101)"><path d="M0 -13.1L13.1 0L0 13.1L-13.1 0Z" fill="none" stroke="#FAEB92" stroke-width="2"></path></g><g transform="translate(371 81)"><path d="M0 -10L10 0L0 10L-10 0Z" stroke="#FAEB92" fill="none" stroke-width="2"></path></g><g transform="translate(742 13)"><path d="M0 -8L8 0L0 8L-8 0Z" stroke="#FAEB92" fill="none" stroke-width="2"></path></g><g transform="translate(70 74)"><path d="M0 -12L12 0L0 12L-12 0Z" stroke="#FAEB92" fill="none" stroke-width="2"></path></g><g transform="translate(754 365)"><path d="M0 -9L9 0L0 9L-9 0Z" stroke="#FAEB92" fill="none" stroke-width="2"></path></g><g transform="translate(661 81)"><path d="M0 -11L11 0L0 11L-11 0Z" stroke="#FAEB92" fill="none" stroke-width="2"></path></g><g transform="translate(876 192)"><path d="M0 -8L8 0L0 8L-8 0Z" stroke="#FAEB92" fill="none" stroke-width="2"></path></g><g transform="translate(511 5)"><path d="M0 -10L10 0L0 10L-10 0Z" stroke="#FAEB92" fill="none" stroke-width="2"></path></g><g transform="translate(645 599)"><path d="M0 -9L9 0L0 9L-9 0Z" stroke="#FAEB92" fill="none" stroke-width="2"></path></g><g transform="translate(123 571)"><path d="M0 -9L9 0L0 9L-9 0Z" stroke="#FAEB92" fill="none" stroke-width="2"></path></g><g transform="translate(595 287)"><path d="M0 -8L8 0L0 8L-8 0Z" stroke="#FAEB92" fill="none" stroke-width="2"></path></g><g transform="translate(708 297)"><path d="M0 -12L12 0L0 12L-12 0Z" stroke="#FAEB92" fill="none" stroke-width="2"></path></g><g transform="translate(39 271)"><path d="M0 -9L9 0L0 9L-9 0Z" stroke="#FAEB92" fill="none" stroke-width="2"></path></g><g transform="translate(340 105)"><path d="M0 -10L10 0L0 10L-10 0Z" stroke="#FAEB92" fill="none" stroke-width="2"></path></g><g transform="translate(632 544)"><path d="M0 -9L9 0L0 9L-9 0Z" stroke="#FAEB92" fill="none" stroke-width="2"></path></g><g transform="translate(164 448)"><path d="M0 -11L11 0L0 11L-11 0Z" stroke="#FAEB92" fill="none" stroke-width="2"></path></g><g transform="translate(14 445)"><path d="M0 -12L12 0L0 12L-12 0Z" stroke="#FAEB92" fill="none" stroke-width="2"></path></g><g transform="translate(840 565)"><path d="M0 -12L12 0L0 12L-12 0Z" stroke="#FAEB92" fill="none" stroke-width="2"></path></g><g transform="translate(426 230)"><path d="M0 -9L9 0L0 9L-9 0Z" stroke="#FAEB92" fill="none" stroke-width="2"></path></g><g transform="translate(319 133)"><path d="M0 -12L12 0L0 12L-12 0Z" stroke="#FAEB92" fill="none" stroke-width="2"></path></g><g transform="translate(538 95)"><path d="M0 -10L10 0L0 10L-10 0Z" stroke="#FAEB92" fill="none" stroke-width="2"></path></g><g transform="translate(395 330)"><path d="M0 -8L8 0L0 8L-8 0Z" stroke="#FAEB92" fill="none" stroke-width="2"></path></g><g transform="translate(175 598)"><path d="M0 -10L10 0L0 10L-10 0Z" stroke="#FAEB92" fill="none" stroke-width="2"></path></g><g transform="translate(775 37)"><path d="M0 -8L8 0L0 8L-8 0Z" stroke="#FAEB92" fill="none" stroke-width="2"></path></g><g transform="translate(142 67)"><path d="M0 -8L8 0L0 8L-8 0Z" stroke="#FAEB92" fill="none" stroke-width="2"></path></g><g transform="translate(789 285)"><path d="M0 -8L8 0L0 8L-8 0Z" stroke="#FAEB92" fill="none" stroke-width="2"></path></g><g transform="translate(477 198)"><path d="M0 -9L9 0L0 9L-9 0Z" stroke="#FAEB92" fill="none" stroke-width="2"></path></g><g transform="translate(537 445)"><path d="M0 -9L9 0L0 9L-9 0Z" stroke="#FAEB92" fill="none" stroke-width="2"></path></g><g transform="translate(200 482)"><path d="M0 -9L9 0L0 9L-9 0Z" stroke="#FAEB92" fill="none" stroke-width="2"></path></g><g transform="translate(505 365)"><path d="M0 -10L10 0L0 10L-10 0Z" stroke="#FAEB92" fill="none" stroke-width="2"></path></g><g transform="translate(853 462)"><path d="M0 -9L9 0L0 9L-9 0Z" stroke="#FAEB92" fill="none" stroke-width="2"></path></g><g transform="translate(310 311)"><path d="M0 -11L11 0L0 11L-11 0Z" stroke="#FAEB92" fill="none" stroke-width="2"></path></g><g transform="translate(578 263)"><path d="M0 -11L11 0L0 11L-11 0Z" stroke="#FAEB92" fill="none" stroke-width="2"></path></g><g transform="translate(190 268)"><path d="M0 -10L10 0L0 10L-10 0Z" stroke="#FAEB92" fill="none" stroke-width="2"></path></g></g></svg>