<svg id="visual" viewBox="0 0 540 960" width="540" height="960" xmlns="http://www.w3.org/2000/svg" xmlns:xlink="http://www.w3.org/1999/xlink" version="1.1"><rect width="540" height="960" fill="#000000"></rect><g><g transform="translate(299 490)"><path d="M0 -12.8L12.8 0L0 12.8L-12.8 0Z" fill="none" stroke="#FAEB92" stroke-width="2"></path></g><g transform="translate(254 576)"><path d="M0 -11L11 0L0 11L-11 0Z" stroke="#FAEB92" fill="none" stroke-width="2"></path></g><g transform="translate(426 463)"><path d="M0 -9L9 0L0 9L-9 0Z" stroke="#FAEB92" fill="none" stroke-width="2"></path></g><g transform="translate(102 647)"><path d="M0 -11L11 0L0 11L-11 0Z" stroke="#FAEB92" fill="none" stroke-width="2"></path></g><g transform="translate(85 897)"><path d="M0 -10L10 0L0 10L-10 0Z" stroke="#FAEB92" fill="none" stroke-width="2"></path></g><g transform="translate(297 419)"><path d="M0 -8L8 0L0 8L-8 0Z" stroke="#FAEB92" fill="none" stroke-width="2"></path></g><g transform="translate(334 791)"><path d="M0 -9L9 0L0 9L-9 0Z" stroke="#FAEB92" fill="none" stroke-width="2"></path></g><g transform="translate(489 245)"><path d="M0 -11L11 0L0 11L-11 0Z" stroke="#FAEB92" fill="none" stroke-width="2"></path></g><g transform="translate(176 674)"><path d="M0 -11L11 0L0 11L-11 0Z" stroke="#FAEB92" fill="none" stroke-width="2"></path></g><g transform="translate(227 167)"><path d="M0 -10L10 0L0 10L-10 0Z" stroke="#FAEB92" fill="none" stroke-width="2"></path></g><g transform="translate(46 126)"><path d="M0 -9L9 0L0 9L-9 0Z" stroke="#FAEB92" fill="none" stroke-width="2"></path></g><g transform="translate(397 438)"><path d="M0 -11L11 0L0 11L-11 0Z" stroke="#FAEB92" fill="none" stroke-width="2"></path></g><g transform="translate(164 195)"><path d="M0 -10L10 0L0 10L-10 0Z" stroke="#FAEB92" fill="none" stroke-width="2"></path></g><g transform="translate(326 256)"><path d="M0 -10L10 0L0 10L-10 0Z" stroke="#FAEB92" fill="none" stroke-width="2"></path></g><g transform="translate(27 322)"><path d="M0 -9L9 0L0 9L-9 0Z" stroke="#FAEB92" fill="none" stroke-width="2"></path></g><g transform="translate(438 355)"><path d="M0 -9L9 0L0 9L-9 0Z" stroke="#FAEB92" fill="none" stroke-width="2"></path></g><g transform="translate(417 249)"><path d="M0 -8L8 0L0 8L-8 0Z" stroke="#FAEB92" fill="none" stroke-width="2"></path></g><g transform="translate(151 555)"><path d="M0 -8L8 0L0 8L-8 0Z" stroke="#FAEB92" fill="none" stroke-width="2"></path></g><g transform="translate(344 695)"><path d="M0 -9L9 0L0 9L-9 0Z" stroke="#FAEB92" fill="none" stroke-width="2"></path></g><g transform="translate(103 869)"><path d="M0 -10L10 0L0 10L-10 0Z" stroke="#FAEB92" fill="none" stroke-width="2"></path></g><g transform="translate(285 601)"><path d="M0 -8L8 0L0 8L-8 0Z" stroke="#FAEB92" fill="none" stroke-width="2"></path></g><g transform="translate(324 164)"><path d="M0 -10L10 0L0 10L-10 0Z" stroke="#FAEB92" fill="none" stroke-width="2"></path></g><g transform="translate(125 539)"><path d="M0 -10L10 0L0 10L-10 0Z" stroke="#FAEB92" fill="none" stroke-width="2"></path></g><g transform="translate(357 942)"><path d="M0 -10L10 0L0 10L-10 0Z" stroke="#FAEB92" fill="none" stroke-width="2"></path></g><g transform="translate(343 59)"><path d="M0 -8L8 0L0 8L-8 0Z" stroke="#FAEB92" fill="none" stroke-width="2"></path></g><g transform="translate(294 349)"><path d="M0 -11L11 0L0 11L-11 0Z" stroke="#FAEB92" fill="none" stroke-width="2"></path></g><g transform="translate(118 828)"><path d="M0 -11L11 0L0 11L-11 0Z" stroke="#FAEB92" fill="none" stroke-width="2"></path></g><g transform="translate(456 938)"><path d="M0 -10L10 0L0 10L-10 0Z" stroke="#FAEB92" fill="none" stroke-width="2"></path></g><g transform="translate(410 498)"><path d="M0 -10L10 0L0 10L-10 0Z" stroke="#FAEB92" fill="none" stroke-width="2"></path></g><g transform="translate(494 749)"><path d="M0 -9L9 0L0 9L-9 0Z" stroke="#FAEB92" fill="none" stroke-width="2"></path></g><g transform="translate(204 144)"><path d="M0 -8L8 0L0 8L-8 0Z" stroke="#FAEB92" fill="none" stroke-width="2"></path></g><g transform="translate(307 313)"><path d="M0 -10L10 0L0 10L-10 0Z" stroke="#FAEB92" fill="none" stroke-width="2"></path></g><g transform="translate(21 401)"><path d="M0 -11L11 0L0 11L-11 0Z" stroke="#FAEB92" fill="none" stroke-width="2"></path></g><g transform="translate(84 211)"><path d="M0 -11L11 0L0 11L-11 0Z" stroke="#FAEB92" fill="none" stroke-width="2"></path></g></g></svg>